<svg xmlns="http://www.w3.org/2000/svg" viewBox="0 0 16 16" id="Table-Tennis-Paddle-Ball--Streamline-Font-Awesome" height="16" width="16">
  <desc>
    Table Tennis Paddle Ball Streamline Icon: https://streamlinehq.com
  </desc>
<!--! Font Awesome Free 6.5.2 by @fontawesome - https://fontawesome.com License - https://fontawesome.com/license/free (Icons: CC BY 4.0, Fonts: SIL OFL 1.1, Code: MIT License) Copyright 2024 Fonticons, Inc.-->
  <path d="M12.899865 8.980020000000001c-1.5341825 0 -2.8662575 0.8819250000000001 -3.5093275 2.1680675000000003L2.2708275 4.028375l0.0183725 -0.0183725 1.8404075 -1.8404075c2.67946 -2.67946 7.0217175 -2.67946 9.70118 0 2.0547625000000003 2.054765 2.5324725000000003 5.0925075 1.4331275 7.603545 -0.6553175000000001 -0.49914500000000006 -1.476 -0.79312 -2.36405 -0.79312ZM1.6706275000000002 4.81231l7.373877500000001 7.373877500000001c-0.04287250000000001 0.22966750000000002 -0.0643075 0.4685225 -0.0643075 0.7135 0 0.7104400000000001 0.18986000000000003 1.3749475000000002 0.5175175000000001 1.9506474999999999 -0.091865 0.006125 -0.18679500000000002 0.0091875 -0.281725 0.0091875h-0.08268c-1.0381 0 -2.0363900000000004 -0.41340250000000006 -2.7713300000000003 -1.14834l-0.3000975 -0.30010000000000003c-0.401155 -0.4011525 -1.0595375 -0.37971750000000004 -1.4331300000000002 0.05205750000000001l-1.7669125 2.0394525000000003c-0.17761000000000002 0.20517 -0.4348375 0.32766000000000006 -0.704315 0.3368475s-0.5358925 -0.09493000000000001 -0.728815 -0.28785l-0.9799175 -0.9799175c-0.19292 -0.1929225 -0.2970375 -0.45627500000000004 -0.28785 -0.728815s0.1316775 -0.5267050000000001 0.3368475 -0.704315l2.0394525000000003 -1.7669125c0.4287125 -0.3735925 0.45321 -1.031975 0.05205750000000001 -1.4331275l-0.30010000000000003 -0.30010000000000003c-0.7349375 -0.7349375 -1.14834 -1.73323 -1.14834 -2.7713300000000003v-0.08268c0 -0.6981900000000001 0.1867975 -1.374945 0.5297675000000001 -1.9690200000000002Zm11.229237500000002 5.1476275000000005c2.2630225 -0.000665 3.678125 2.4487125 2.5471875 4.40888 -0.5251750000000001 0.91025 -1.4962975 1.47093 -2.5471875 1.4706225000000002 -2.26302 0.0006625 -3.6781225 -2.448715 -2.5471875 -4.40888 0.5251775000000001 -0.91025 1.4963 -1.4709325 2.5471875 -1.4706225000000002Z" fill="#000000" stroke-width="0.025"></path>
</svg>